<svg width="512" height="512" viewBox="0 0 512 512" fill="none" xmlns="http://www.w3.org/2000/svg">
  <defs>
    <!-- Background Radial Gradient (Obsidian to Deep Mint) -->
    <radialGradient id="hmBgGrad" cx="50%" cy="30%" r="70%">
      <stop offset="0%" stop-color="#162e24" />
      <stop offset="60%" stop-color="#0e1a15" />
      <stop offset="100%" stop-color="#080c0a" />
    </radialGradient>

    <!-- Primary Minted Token Gradient -->
    <linearGradient id="hmTokenGrad" x1="64" y1="64" x2="448" y2="448" gradientUnits="userSpaceOnUse">
      <stop offset="0%" stop-color="#38bdf8" />
      <stop offset="30%" stop-color="#34d399" />
      <stop offset="70%" stop-color="#10b981" />
      <stop offset="100%" stop-color="#059669" />
    </linearGradient>

    <!-- Inner Coin Face Radial Sheen -->
    <radialGradient id="hmCoinFace" cx="50%" cy="40%" r="65%">
      <stop offset="0%" stop-color="#10b981" stop-opacity="0.16" />
      <stop offset="100%" stop-color="#080c0a" stop-opacity="0.85" />
    </radialGradient>

    <!-- Top Roof Bevel Highlight -->
    <linearGradient id="hmHighlight" x1="140" y1="126" x2="370" y2="230" gradientUnits="userSpaceOnUse">
      <stop offset="0%" stop-color="#ffffff" stop-opacity="0.4" />
      <stop offset="100%" stop-color="#ffffff" stop-opacity="0" />
    </linearGradient>

    <!-- Subtle Outer Glow -->
    <filter id="hmGlow" x="15%" y="15%" width="70%" height="70%" filterUnits="userSpaceOnUse">
      <feGaussianBlur stdDeviation="8" result="blur" />
      <feComposite in="SourceGraphic" in2="blur" operator="over" />
    </filter>
  </defs>

  <!-- Container Squircle Base -->
  <rect width="512" height="512" rx="116" fill="url(#hmBgGrad)" />
  <rect width="508" height="508" x="2" y="2" rx="114" stroke="#10b981" stroke-opacity="0.25" stroke-width="2.5" />

  <!-- Outer Minted Coin Ring -->
  <circle cx="256" cy="256" r="214" fill="url(#hmCoinFace)" stroke="url(#hmTokenGrad)" stroke-width="14" />
  <circle cx="256" cy="256" r="188" stroke="#10b981" stroke-opacity="0.25" stroke-width="2" stroke-dasharray="6 8" />

  <!-- Precision Mint Stamps (Coin Edge Indices) -->
  <rect x="34" y="250" width="14" height="12" rx="4" fill="#38bdf8" />
  <rect x="464" y="250" width="14" height="12" rx="4" fill="#10b981" />

  <!-- Architectural House & Vault Artwork with subtle glow -->
  <g filter="url(#hmGlow)">
    <!-- Pitched Roof Crest -->
    <path
      d="M 256,126
         L 372,224
         C 378,229 379,239 373,246
         C 367,253 357,254 350,248
         L 256,168
         L 162,248
         C 155,254 145,253 139,246
         C 133,239 134,229 140,224
         Z"
      fill="url(#hmTokenGrad)"
    />

    <!-- Specular highlight on roof slope -->
    <path
      d="M 256,134 L 364,226"
      stroke="url(#hmHighlight)"
      stroke-width="3.5"
      stroke-linecap="round"
    />

    <!-- House Body -->
    <path
      d="M 174,258
         L 338,258
         C 346,258 352,264 352,272
         L 352,366
         C 352,374 346,380 338,380
         L 174,380
         C 166,380 160,374 160,366
         L 160,272
         C 160,264 166,258 174,258
         Z"
      fill="url(#hmTokenGrad)"
    />

    <!-- Vault Doorway Arch Cutout -->
    <path
      d="M 224,380
         L 224,312
         C 224,294 238,280 256,280
         C 274,280 288,294 288,312
         L 288,380
         Z"
      fill="#080c0a"
    />

    <!-- Equal-Split Balance Ledger (=) inside Vault -->
    <rect x="238" y="324" width="36" height="7" rx="3.5" fill="url(#hmTokenGrad)" />
    <rect x="238" y="342" width="36" height="7" rx="3.5" fill="url(#hmTokenGrad)" />

    <!-- Center Minted Coin Disc at Hearth -->
    <circle cx="256" cy="214" r="18" fill="url(#hmTokenGrad)" />
    <circle cx="256" cy="214" r="11" fill="#080c0a" />
    <circle cx="256" cy="214" r="5" fill="#38bdf8" />
  </g>
</svg>